<svg version="1.1" xmlns="http://www.w3.org/2000/svg" viewBox="0 0 255.00288600288604 110.16216041629934" width="255.00288600288604" height="110.16216041629934">
  <!-- svg-source:excalidraw -->
  
  <defs>
    <style>
      @font-face {
        font-family: "Virgil";
        src: url("https://excalidraw.com/Virgil.woff2");
      }
      @font-face {
        font-family: "Cascadia";
        src: url("https://excalidraw.com/Cascadia.woff2");
      }
    </style>
  </defs>
  <rect x="0" y="0" width="255.00288600288604" height="110.16216041629934" fill="#ffffff"></rect><g stroke-linecap="round" transform="translate(18.522921078410832 48.813618113387975) rotate(0 17.222222222222314 17.222222222222314)"><path d="M23.79 3.33 C26.82 4.14, 30.81 5.24, 32.16 8.62 C33.52 12, 32.73 19.62, 31.95 23.59 C31.16 27.57, 30.25 30.62, 27.46 32.48 C24.66 34.34, 18.89 35.62, 15.18 34.76 C11.48 33.91, 7.8 29.93, 5.22 27.34 C2.64 24.75, 0.33 22.7, -0.3 19.24 C-0.93 15.78, -0.91 9.74, 1.43 6.57 C3.77 3.41, 9.14 0.16, 13.73 0.23 C18.32 0.31, 26.13 5.58, 28.98 7.01 C31.84 8.45, 30.9 9.09, 30.87 8.86 M29.85 6.2 C32.41 8.18, 33.97 9.39, 34.02 13.09 C34.06 16.79, 32.58 24.9, 30.11 28.39 C27.64 31.88, 22.54 33.51, 19.21 34.05 C15.87 34.59, 12.92 33.26, 10.1 31.61 C7.28 29.96, 3.72 27.51, 2.29 24.16 C0.86 20.8, 0.4 14.72, 1.52 11.49 C2.64 8.26, 5.72 6.46, 9.02 4.78 C12.33 3.09, 18.03 1.32, 21.33 1.38 C24.63 1.44, 27.23 4.58, 28.83 5.12 C30.43 5.66, 30.91 4.85, 30.94 4.63" stroke="#c92a2a" stroke-width="2" fill="none"></path></g><g stroke-linecap="round" transform="translate(210.0290538345438 41.853841778611695) rotate(0 17.222222222222342 17.222222222222314)"><path d="M24.59 0.02 C27.46 0.82, 29.09 3.86, 30.86 6.96 C32.63 10.07, 35.92 14.48, 35.19 18.65 C34.47 22.81, 29.59 29.06, 26.5 31.93 C23.42 34.81, 20.06 36.21, 16.68 35.9 C13.31 35.6, 9.22 32.84, 6.24 30.11 C3.26 27.37, -0.44 22.92, -1.22 19.49 C-2 16.06, -0.84 12.44, 1.54 9.55 C3.92 6.65, 8.9 3.2, 13.07 2.11 C17.24 1.02, 23.54 2.42, 26.57 3 C29.59 3.58, 31.14 5.45, 31.22 5.6 M19.64 2.76 C22.84 2.44, 24.02 3.43, 26.29 5.42 C28.57 7.42, 32.22 11.54, 33.29 14.74 C34.36 17.94, 34.79 21.78, 32.7 24.63 C30.61 27.48, 24.11 30.8, 20.76 31.86 C17.41 32.92, 15.32 32.38, 12.59 30.98 C9.85 29.58, 6.81 25.92, 4.35 23.46 C1.89 21, -2.19 19.56, -2.19 16.21 C-2.19 12.85, 1.05 6.36, 4.34 3.33 C7.64 0.31, 15.72 -1.14, 17.56 -1.93 C19.39 -2.72, 15.61 -2.07, 15.36 -1.41" stroke="#087f5b" stroke-width="2" fill="none"></path></g><g stroke-linecap="round"><g transform="translate(62.28036172243708 64.51069485674054) rotate(0 67.92313928906975 -1.4562514594443599)"><path d="M-1.27 2.33 C21.33 1.57, 114.11 -4.48, 137.12 -5.24 M3.23 1.12 C25.3 0.87, 112.8 -0.62, 134.7 -1.87" stroke="#364fc7" stroke-width="2" fill="none"></path></g><g transform="translate(62.28036172243708 64.51069485674054) rotate(0 67.92313928906975 -1.4562514594443599)"><path d="M110.2 8.87 C116.08 4.69, 130.23 -2.28, 130.72 -1.63 M106.12 9.69 C112.11 5.94, 120.94 5.26, 133.27 -1.05" stroke="#364fc7" stroke-width="2" fill="none"></path></g><g transform="translate(62.28036172243708 64.51069485674054) rotate(0 67.92313928906975 -1.4562514594443599)"><path d="M109.5 -11.64 C115.52 -8.56, 129.92 -8.28, 130.72 -1.63 M105.42 -10.82 C111.57 -9.84, 120.56 -5.8, 133.27 -1.05" stroke="#364fc7" stroke-width="2" fill="none"></path></g></g><g transform="translate(10 13.462842712842416) rotate(0 32 13)"><text x="0" y="18" font-family="Virgil, Segoe UI Emoji" font-size="20px" fill="#c92a2a" text-anchor="start" style="white-space: pre;" direction="ltr">gene A</text></g><g transform="translate(150.00288600288604 10) rotate(0 47.5 13)"><text x="0" y="18" font-family="Virgil, Segoe UI Emoji" font-size="20px" fill="#087f5b" text-anchor="start" style="white-space: pre;" direction="ltr">disease X</text></g><g transform="translate(81.13100549970636 74.16216041629934) rotate(0 38 13)"><text x="0" y="18" font-family="Virgil, Segoe UI Emoji" font-size="20px" fill="#364fc7" text-anchor="start" style="white-space: pre;" direction="ltr">affects</text></g></svg>
