<svg version="1.1" xmlns="http://www.w3.org/2000/svg" viewBox="0 0 690.2143049868425 224.0345573621741" width="690.2143049868425" height="224.0345573621741">
  <!-- svg-source:excalidraw -->
  
  <defs>
    <style>
      @font-face {
        font-family: "Virgil";
        src: url("https://excalidraw.com/Virgil.woff2");
      }
      @font-face {
        font-family: "Cascadia";
        src: url("https://excalidraw.com/Cascadia.woff2");
      }
    </style>
  </defs>
  <rect x="0" y="0" width="690.2143049868425" height="224.0345573621741" fill="#ffffff"></rect><g stroke-linecap="round"><g transform="translate(284.51888338635047 111.10159265039175) rotate(0 -79.15259906712885 15.521344289960268)"><path d="M0.55 0.44 C-25.91 5.76, -131.48 26.43, -158.19 31.42 M-0.62 -0.37 C-27.24 4.67, -132.74 24.43, -158.85 29.76" stroke="#000000" stroke-width="1" fill="none"></path></g><g transform="translate(284.51888338635047 111.10159265039175) rotate(0 -79.15259906712885 15.521344289960268)"><path d="M-132.41 15.19 C-140.65 18.14, -151.32 23.91, -157.31 27.98 M-132.93 13.91 C-142.83 19.32, -154.06 25.65, -158.19 29.12" stroke="#000000" stroke-width="1" fill="none"></path></g><g transform="translate(284.51888338635047 111.10159265039175) rotate(0 -79.15259906712885 15.521344289960268)"><path d="M-128.49 35.34 C-138 31.32, -150.03 30.11, -157.31 27.98 M-129.01 34.06 C-140.29 31.39, -153.09 29.66, -158.19 29.12" stroke="#000000" stroke-width="1" fill="none"></path></g></g><g transform="translate(152.9762624651397 61.39565163653316) rotate(0 38.5 26.5)"><text x="0" y="18.5" font-family="Virgil, Segoe UI Emoji" font-size="20px" fill="#000000" text-anchor="start" style="white-space: pre;" direction="ltr">trusted</text><text x="0" y="45" font-family="Virgil, Segoe UI Emoji" font-size="20px" fill="#000000" text-anchor="start" style="white-space: pre;" direction="ltr">services</text></g><g stroke-linecap="round"><g transform="translate(424.43040898878144 115.57046756107803) rotate(0 67.8724541076007 17.698443314641736)"><path d="M0.53 0.89 C22.81 6.42, 111.88 28, 134.2 33.64 M-0.65 0.3 C21.94 5.99, 113.46 29.66, 136.39 35.09" stroke="#000000" stroke-width="1" fill="none"></path></g><g transform="translate(424.43040898878144 115.57046756107803) rotate(0 67.8724541076007 17.698443314641736)"><path d="M108.03 36.59 C116.58 35.79, 128.72 34.15, 138.38 33.31 M107.28 37.29 C112.74 36.89, 120.07 36.35, 136.74 34.12" stroke="#000000" stroke-width="1" fill="none"></path></g><g transform="translate(424.43040898878144 115.57046756107803) rotate(0 67.8724541076007 17.698443314641736)"><path d="M113 16.68 C119.9 22.78, 130.33 28.03, 138.38 33.31 M112.24 17.38 C116.68 21.24, 122.94 25, 136.74 34.12" stroke="#000000" stroke-width="1" fill="none"></path></g></g><g transform="translate(469.0000719889499 68.58215957304117) rotate(0 38 26.5)"><text x="76" y="18.5" font-family="Virgil, Segoe UI Emoji" font-size="20px" fill="#000000" text-anchor="end" style="white-space: pre;" direction="ltr">trusted</text><text x="76" y="45" font-family="Virgil, Segoe UI Emoji" font-size="20px" fill="#000000" text-anchor="end" style="white-space: pre;" direction="ltr">agents</text></g><g stroke-linecap="round" transform="translate(10 100.39401406639718) rotate(0 51.05078125 51.05078124999997)"><path d="M26.41 1.48 L80.92 0.12 L90.91 5.13 L96.73 11.96 L100.32 23.83 L102.13 81.77 L99.96 90.25 L91.66 96.94 L77.91 100.82 L20.24 99.75 L11.34 99.7 L3.34 92 L-0.33 74.61 L-0.89 26.59 L2.57 15.44 L3.41 8.13 L10.61 5.17 L27.09 -0.92" stroke="none" stroke-width="0" fill="#ffffff"></path><path d="M25.53 0 M25.53 0 C41.66 2.01, 60.25 0.35, 76.58 0 M25.53 0 C43.8 -0.37, 59.99 0.69, 76.58 0 M76.58 0 C93.93 1.44, 102.14 7.46, 102.1 25.53 M76.58 0 C91.64 -1.91, 101.62 9.55, 102.1 25.53 M102.1 25.53 C103.87 35.93, 100.73 49.74, 102.1 76.58 M102.1 25.53 C101.62 36.61, 101.23 49.46, 102.1 76.58 M102.1 76.58 C102.89 94.9, 95.53 103.3, 76.58 102.1 M102.1 76.58 C101.36 93.61, 94.22 101.97, 76.58 102.1 M76.58 102.1 C58.25 102.86, 37.5 103.7, 25.53 102.1 M76.58 102.1 C64.08 101.66, 50.2 102.78, 25.53 102.1 M25.53 102.1 C9.83 100.15, 1.89 95.35, 0 76.58 M25.53 102.1 C10.57 100.62, 0.37 92.58, 0 76.58 M0 76.58 C1.64 63.88, 1.5 50.61, 0 25.53 M0 76.58 C-1.12 63.21, 0.79 50.05, 0 25.53 M0 25.53 C1.73 10.33, 8.33 -0.45, 25.53 0 M0 25.53 C2.18 10.67, 8.28 -1.92, 25.53 0" stroke="#000000" stroke-width="1" fill="none"></path></g><g stroke-linecap="round"><g transform="translate(40.689164762484324 111.48102885942671) rotate(0 22.296744171429964 -0.17133166831030167)"><path d="M-0.17 -0.74 C7.4 -0.88, 38.52 -1.65, 46.31 -1.84 M-1.72 1.49 C5.7 1.55, 37.82 -0.43, 45.85 -0.86" stroke="#000000" stroke-width="1" fill="none"></path></g></g><g stroke-linecap="round"><g transform="translate(41.07378014709957 120.32718270558075) rotate(0 22.867385092985444 -0.058847717256497845)"><path d="M-0.74 0.93 C6.81 1.02, 36.81 0.88, 44.32 0.42 M1.08 0.37 C9.07 0.18, 38.88 -0.84, 46.47 -1.07" stroke="#000000" stroke-width="1" fill="none"></path></g></g><g stroke-linecap="round"><g transform="translate(41.073780147100024 128.27590065429854) rotate(0 23.265030825783185 -0.42910168730418263)"><path d="M0.93 -1.07 C8.72 -1.25, 39.34 -1.93, 46.58 -1.84 M-0.05 0.99 C7.7 0.98, 38.46 -0.86, 46.26 -0.87" stroke="#000000" stroke-width="1" fill="none"></path></g></g><g stroke-linecap="round"><g transform="translate(39.535318608638136 137.76308014147799) rotate(0 22.69828935087901 -0.29602404592137077)"><path d="M-1.07 1.19 C6.44 0.74, 36.53 -1.38, 44.31 -1.79 M0.57 0.77 C8.51 0.36, 39.06 -0.62, 46.46 -0.78" stroke="#000000" stroke-width="1" fill="none"></path></g></g><g stroke-linecap="round"><g transform="translate(39.407113480433054 147.9553878337856) rotate(0 23.453817387332776 -0.7601268250732574)"><path d="M1.19 -1.07 C8.43 -0.98, 37.08 -0.71, 44.37 -0.51 M0.36 0.98 C7.88 0.78, 39.29 -2.04, 46.55 -2.5" stroke="#000000" stroke-width="1" fill="none"></path></g></g><g stroke-linecap="round"><g transform="translate(39.7917288650483 156.80154167993965) rotate(0 22.284817794996854 -0.06626315650242987)"><path d="M-1.07 -1.02 C6.71 -1.42, 37.75 -1.1, 45.64 -1.24 M0.57 1.07 C8.31 1.33, 37.26 0.42, 44.83 0.05" stroke="#000000" stroke-width="1" fill="none"></path></g></g><g stroke-linecap="round"><g transform="translate(39.79172886504875 164.75025962865743) rotate(0 21.947474605876607 -0.6127059970002335)"><path d="M-1.02 0.26 C6.27 0.45, 37.37 0.32, 44.91 0.1 M0.65 -0.66 C7.63 -0.7, 36.06 -1.7, 43.71 -1.57" stroke="#000000" stroke-width="1" fill="none"></path></g></g><g stroke-linecap="round" transform="translate(578.1127424868425 111.9329948621741) rotate(0 51.05078124999997 51.05078125)"><path d="M23.74 -1.69 L82.99 -0.39 L93.58 1.71 L98.04 8.4 L103.44 24.24 L102.4 80.61 L99.88 93.32 L91.88 98.39 L76.25 100.13 L18.65 102.77 L10.94 99.59 L3.41 90.29 L0.64 78.15 L1.57 24.61 L2.26 12.48 L2.24 9.09 L11.64 4.28 L25.53 0.93" stroke="none" stroke-width="0" fill="#ffffff"></path><path d="M25.53 0 M25.53 0 C36.55 -2.13, 51.13 0.04, 76.58 0 M25.53 0 C43.66 -0.56, 63.29 0.72, 76.58 0 M76.58 0 C92.08 1.43, 100.65 9.91, 102.1 25.53 M76.58 0 C92.39 -2, 103.61 6.98, 102.1 25.53 M102.1 25.53 C100.35 39.87, 102.21 58.88, 102.1 76.58 M102.1 25.53 C102.27 44.19, 102.87 62.79, 102.1 76.58 M102.1 76.58 C103.53 91.75, 94.67 102.73, 76.58 102.1 M102.1 76.58 C102.66 92.25, 95.11 101.22, 76.58 102.1 M76.58 102.1 C58.45 103.21, 43.69 103.86, 25.53 102.1 M76.58 102.1 C67.15 101.91, 56.09 102.11, 25.53 102.1 M25.53 102.1 C7.96 100.25, -1.43 94.77, 0 76.58 M25.53 102.1 C9.91 103.28, 2.15 92.74, 0 76.58 M0 76.58 C0.26 61.52, 0.78 44.37, 0 25.53 M0 76.58 C0.99 57.55, -0.05 35.82, 0 25.53 M0 25.53 C-1.67 9.65, 10.42 -1.5, 25.53 0 M0 25.53 C1.61 8.31, 9.44 1.13, 25.53 0" stroke="#000000" stroke-width="1" fill="none"></path></g><g stroke-linecap="round"><g transform="translate(608.8019072493269 123.02000965520364) rotate(0 22.952087198991904 -0.09233712015253559)"><path d="M-0.47 0.87 C7.07 0.65, 36.77 -0.91, 44.26 -1.05 M1.48 0.28 C9.47 0.22, 38.82 0.7, 46.38 0.34" stroke="#000000" stroke-width="1" fill="none"></path></g></g><g stroke-linecap="round"><g transform="translate(609.1865226339421 131.86616350135768) rotate(0 22.48288641409262 -0.409136101529441)"><path d="M0.87 -1.13 C8.34 -1.33, 37.55 -1.65, 45.1 -1.71 M-0.14 0.9 C7.13 0.85, 36.34 -0.42, 44 -0.67" stroke="#000000" stroke-width="1" fill="none"></path></g></g><g stroke-linecap="round"><g transform="translate(609.1865226339423 139.81488145007546) rotate(0 22.764366029400946 -0.8518476885711266)"><path d="M-1.13 -0.28 C6.36 -0.42, 36.82 0.04, 44.44 0.03 M0.48 -1.48 C8.38 -2.03, 38.89 -1.5, 46.66 -1.67" stroke="#000000" stroke-width="1" fill="none"></path></g></g><g stroke-linecap="round"><g transform="translate(607.6480610954807 149.3020609372549) rotate(0 22.951228002745296 -0.17957748307006227)"><path d="M-0.28 -0.94 C7.27 -1.01, 38.5 -1.37, 46.19 -1.54 M1.77 1.17 C9.16 1.34, 38.41 -0.01, 45.66 -0.41" stroke="#000000" stroke-width="1" fill="none"></path></g></g><g stroke-linecap="round"><g transform="translate(607.5198559672754 159.49436862956253) rotate(0 22.988323116798526 -0.7240597840775536)"><path d="M-0.94 0.8 C6.68 0.79, 37.09 -0.22, 44.61 -0.35 M0.76 0.18 C8.87 -0.18, 39.3 -1.91, 46.92 -2.25" stroke="#000000" stroke-width="1" fill="none"></path></g></g><g stroke-linecap="round"><g transform="translate(607.9044713518906 168.34052247571657) rotate(0 22.784373827737397 -0.2505767240608918)"><path d="M0.8 -0.77 C8.48 -0.94, 38.24 -2.06, 45.81 -1.94 M-0.24 1.44 C7.35 1.46, 37.39 -0.44, 45.08 -1.02" stroke="#000000" stroke-width="1" fill="none"></path></g></g><g stroke-linecap="round"><g transform="translate(607.9044713518911 176.28924042443435) rotate(0 22.770527675051824 -0.6123856650481798)"><path d="M-0.77 0.42 C6.76 0.3, 36.4 0.28, 44.21 0.05 M1.03 -0.4 C8.98 -0.93, 38.86 -1.76, 46.31 -1.64" stroke="#000000" stroke-width="1" fill="none"></path></g></g><g stroke-linecap="round" transform="translate(305.85405264371127 48.13852118018383) rotate(0 51.05078124999997 51.05078124999997)"><path d="M26.86 -1.28 L83.26 -1.55 L93.5 4.78 L98.27 9.84 L101.77 23.56 L100.81 83.62 L99.48 93.21 L91.95 96.67 L77.22 103.68 L21.11 100.78 L10.64 96.63 L2.24 91.25 L1.67 77.26 L0 26.45 L0.48 12.99 L4.76 8.54 L8.14 4.28 L25.86 1.44" stroke="none" stroke-width="0" fill="#ffffff"></path><path d="M25.53 0 M25.53 0 C39.27 0.01, 57.23 -1.08, 76.58 0 M25.53 0 C43.98 -1.23, 64.13 -1.02, 76.58 0 M76.58 0 C93.97 -0.25, 100.95 6.82, 102.1 25.53 M76.58 0 C91.37 0.19, 103 10.02, 102.1 25.53 M102.1 25.53 C102.42 46.32, 102.29 67.46, 102.1 76.58 M102.1 25.53 C102.62 35.54, 103.04 46.34, 102.1 76.58 M102.1 76.58 C102.76 94.12, 95.31 100.96, 76.58 102.1 M102.1 76.58 C102.87 94.85, 95.11 99.85, 76.58 102.1 M76.58 102.1 C55.14 102.88, 35.4 102.01, 25.53 102.1 M76.58 102.1 C66.59 102.91, 56.32 102.03, 25.53 102.1 M25.53 102.1 C9.16 101.48, -1.91 93.7, 0 76.58 M25.53 102.1 C10.71 102.82, 1.99 95.69, 0 76.58 M0 76.58 C2 61.51, -1.55 45.17, 0 25.53 M0 76.58 C0.21 58.26, -0.08 40.61, 0 25.53 M0 25.53 C0.09 10.06, 10.33 -1.94, 25.53 0 M0 25.53 C-2.28 9.98, 9.49 1.61, 25.53 0" stroke="#000000" stroke-width="1" fill="none"></path></g><g stroke-linecap="round" transform="translate(318.865324426784 59.12959607767482) rotate(0 15.063829787233999 15.063829787233999)"><path d="M15.83 -0.92 C18.94 -1.04, 22.94 1.73, 25.32 3.87 C27.71 6.01, 29.58 8.85, 30.15 11.91 C30.72 14.98, 30.35 19.33, 28.74 22.26 C27.14 25.19, 23.5 28.44, 20.49 29.5 C17.49 30.56, 13.75 29.7, 10.72 28.63 C7.69 27.56, 3.96 25.96, 2.33 23.1 C0.69 20.23, 0.22 14.54, 0.9 11.42 C1.57 8.3, 3.53 6.36, 6.37 4.37 C9.21 2.38, 15.82 0.15, 17.92 -0.52 C20.02 -1.19, 19.21 0.15, 18.99 0.35 M10.55 2.36 C13.12 1.03, 16.69 0.74, 19.53 1.35 C22.37 1.95, 25.83 3.04, 27.57 5.98 C29.32 8.92, 30.38 15.34, 30 18.98 C29.63 22.62, 27.56 25.98, 25.32 27.81 C23.08 29.65, 19.93 29.95, 16.57 30 C13.21 30.05, 7.64 30.17, 5.15 28.11 C2.67 26.06, 2.41 21.29, 1.66 17.67 C0.92 14.05, -0.8 8.95, 0.7 6.4 C2.19 3.85, 9.29 3.07, 10.64 2.39 C11.98 1.7, 8.84 2.19, 8.77 2.29" stroke="none" stroke-width="0" fill="#fff"></path><path d="M19.32 -0.32 C22.26 0.5, 25.4 4.45, 27.26 7.41 C29.13 10.37, 30.84 14.5, 30.5 17.46 C30.16 20.42, 27.62 22.94, 25.23 25.18 C22.84 27.41, 19.23 30.66, 16.15 30.9 C13.07 31.14, 9.34 28.86, 6.77 26.62 C4.19 24.39, 1.68 20.64, 0.71 17.49 C-0.25 14.35, -0.57 10.42, 0.98 7.76 C2.53 5.1, 6.65 2.53, 10.03 1.53 C13.41 0.54, 19.23 1.75, 21.26 1.8 C23.28 1.84, 22.21 1.75, 22.2 1.79 M9.5 1.57 C11.95 -0.21, 15.13 -1.55, 17.88 -0.84 C20.62 -0.13, 23.83 3.23, 25.98 5.86 C28.13 8.48, 30.6 11.84, 30.77 14.93 C30.95 18.02, 29.18 22.02, 27.01 24.41 C24.84 26.79, 21.34 28.56, 17.74 29.26 C14.13 29.95, 8.4 30.18, 5.38 28.56 C2.35 26.94, 0.31 22.95, -0.4 19.55 C-1.11 16.14, -0.17 11.36, 1.09 8.12 C2.35 4.87, 5.89 1.05, 7.15 0.09 C8.42 -0.86, 8.19 1.69, 8.68 2.4" stroke="#000000" stroke-width="1" fill="none"></path></g><g stroke-linecap="round"><g transform="translate(329.0323903197765 67.02897709464798) rotate(0 7.029222150268424 7.038445679718222)" fill-rule="evenodd"><path d="M1.22 1.03 L3.27 12.84 L14.23 6.44 L-1.91 0.11" stroke="none" stroke-width="0" fill="#fff" fill-rule="evenodd"></path><path d="M0.81 -0.17 C0.25 4.32, -0.54 8.48, 2.13 14.25 M0.22 0.54 C1.02 4.51, 1.21 8.99, 0.95 13.28 M2.05 12.81 C5.11 11.89, 9.73 7.32, 14.06 7.3 M0.82 13.01 C5.79 11.54, 9.94 9.29, 13.08 7.55 M12.57 7.35 C10.08 4.52, 5.62 2.17, 0.13 0.6 M13.34 7.07 C8.76 4.52, 4.13 1.27, 0.41 0.24 M0 0 C0 0, 0 0, 0 0 M0 0 C0 0, 0 0, 0 0" stroke="#000000" stroke-width="1" fill="none"></path></g></g><g stroke-linecap="round" transform="translate(361.2998026428414 60.801243747761305) rotate(0 13.617021276595779 13.617021276595779)"><path d="M12.74 0.54 C15.61 0.53, 20.17 1.89, 22.52 3.46 C24.87 5.02, 26.29 7.01, 26.86 9.91 C27.43 12.81, 27.17 18.19, 25.94 20.84 C24.71 23.49, 22.17 25, 19.46 25.8 C16.76 26.6, 12.72 26.52, 9.7 25.61 C6.69 24.71, 2.83 22.62, 1.37 20.35 C-0.08 18.09, 0.44 14.76, 0.97 12.02 C1.5 9.29, 2.25 6.03, 4.54 3.93 C6.83 1.83, 12.5 0.06, 14.72 -0.58 C16.94 -1.23, 17.93 -0.33, 17.85 0.06 M13.97 -1.23 C16.36 -1.23, 19.65 1.56, 21.97 3.64 C24.28 5.72, 27.21 8.47, 27.86 11.25 C28.51 14.03, 27.48 17.85, 25.87 20.3 C24.27 22.76, 21.45 24.87, 18.24 25.97 C15.02 27.08, 9.59 28.01, 6.6 26.96 C3.61 25.91, 1.35 22.64, 0.3 19.7 C-0.76 16.75, -0.44 12.38, 0.26 9.27 C0.96 6.16, 2.07 2.47, 4.51 1.04 C6.94 -0.4, 13.02 0.51, 14.89 0.64 C16.76 0.76, 15.61 1.72, 15.72 1.77" stroke="#000000" stroke-width="1" fill="none"></path></g><g stroke-linecap="round" transform="translate(381.61256860028936 67.07571183286814) rotate(0 7.9500000000000455 7.9500000000000455)"><path d="M13.06 1.86 C14.37 2.95, 15.48 4.89, 15.78 6.57 C16.08 8.25, 15.69 10.45, 14.83 11.93 C13.98 13.4, 12.27 14.84, 10.67 15.42 C9.07 16, 6.83 16, 5.23 15.42 C3.63 14.84, 1.92 13.4, 1.07 11.93 C0.21 10.45, -0.18 8.25, 0.12 6.57 C0.42 4.89, 1.53 2.95, 2.84 1.86 C4.14 0.77, 6.25 0, 7.95 0 C9.65 0, 11.76 0.77, 13.06 1.86" stroke="none" stroke-width="0" fill="#ffffff"></path><path d="M13.06 1.86 C14.37 2.95, 15.48 4.89, 15.78 6.57 C16.08 8.25, 15.69 10.45, 14.83 11.93 C13.98 13.4, 12.27 14.84, 10.67 15.42 C9.07 16, 6.83 16, 5.23 15.42 C3.63 14.84, 1.92 13.4, 1.07 11.93 C0.21 10.45, -0.18 8.25, 0.12 6.57 C0.42 4.89, 1.53 2.95, 2.84 1.86 C4.14 0.77, 6.25 0, 7.95 0 C9.65 0, 11.76 0.77, 13.06 1.86" stroke="transparent" stroke-width="1" fill="none"></path></g><g stroke-linecap="round"><g transform="translate(379.18931519033197 64.00990523142218) rotate(63.754258255978264 6.578964631180526 6.1195675246986525)" fill-rule="evenodd"><path d="M-0.74 0.65 L0.78 11.68 L13.69 8.98 L0.62 1.73" stroke="none" stroke-width="0" fill="#fff" fill-rule="evenodd"></path><path d="M-0.23 -1.34 C-0.12 5.61, 1.66 10.51, 1.28 12.33 M-0.31 0.23 C-0.07 4.04, 0.74 9.58, 1.64 13.58 M2.21 12.59 C4.4 11.88, 10.11 10.14, 13.61 6.34 M1.72 13.06 C4.57 11.71, 7.18 10.44, 12.98 7.52 M12.7 5.77 C8.91 5.53, 7.82 4.75, 1.48 0.92 M13.54 7.61 C9.24 5.62, 6.55 3.5, -0.45 0.51 M0 0 C0 0, 0 0, 0 0 M0 0 C0 0, 0 0, 0 0" stroke="#000000" stroke-width="1" fill="none"></path></g></g><g transform="translate(275.32143820770705 10) rotate(0 84.5 13)"><text x="0" y="18" font-family="Virgil, Segoe UI Emoji" font-size="20px" fill="#000000" text-anchor="start" style="white-space: pre;" direction="ltr">knowledge setting</text></g></svg>
